<svg id="Layer_1" data-name="Layer 1" xmlns="http://www.w3.org/2000/svg" viewBox="0 0 300 300"><defs><style>.cls-1{fill:#fff;}.cls-2{fill:#000000;}</style></defs><title>icons</title><path class="cls-1" d="M51.05,290c-3.19,0-5.57-1.95-5.57-3.7V13.7c0-1.75,2.38-3.7,5.57-3.7H182.47c.38,1.35.77,2.83,1.13,4.17,3.62,13.48,9.67,36,24.53,49.13,15.07,13.28,34.12,16.85,45.5,19l.9.17V286.3c0,1.75-2.39,3.7-5.58,3.7Z"/><path class="cls-2" d="M174.82,20c4,14.73,10.78,36.77,26.7,50.8,14,12.34,30.95,17.29,43,19.88V280h-189V20H174.82M188.67,0H51.05c-8.6,0-15.57,6.14-15.57,13.7V286.3c0,7.56,7,13.7,15.57,13.7H249c8.6,0,15.57-6.14,15.57-13.7V75.47c0-3.83-29.92-2.17-49.77-19.67C195.39,38.74,192.92,0,188.67,0Z"/><path class="cls-1" d="M188.85,82.55A6.88,6.88,0,0,1,182,75.68V16.9a6.9,6.9,0,0,1,7-6.9,6.51,6.51,0,0,1,4.73,2.05l58.78,58.77a6.87,6.87,0,0,1-4.86,11.73Z"/><path class="cls-2" d="M192,24.46l48.08,48.09H192V24.46M189,0a16.85,16.85,0,0,0-17,16.9V75.68a16.87,16.87,0,0,0,16.87,16.87h58.77c15,0,22.56-18.17,11.93-28.8L200.77,5A16.52,16.52,0,0,0,189,0Z"/><rect class="cls-2" x="136.38" y="101.46" width="27.23" height="97.08" rx="5.08"/><rect class="cls-2" x="136.38" y="101.46" width="27.23" height="97.08" rx="4.99" transform="translate(0 300) rotate(-90)"/></svg>