<svg id="Layer_1" data-name="Layer 1" xmlns="http://www.w3.org/2000/svg" viewBox="0 0 300 300"><defs><style>.cls-1{fill:#247fcc;}</style></defs><title>icons</title><rect class="cls-1" x="125.29" width="47.05" height="208.99" rx="5.1"/><path class="cls-1" d="M173.49,227.87,153.26,245a7.13,7.13,0,0,1-8.88,0L26,144.73a4.77,4.77,0,0,1,0-7.52l20.24-17.14a7.13,7.13,0,0,1,8.88,0L173.49,220.35A4.77,4.77,0,0,1,173.49,227.87Z"/><path class="cls-1" d="M144.35,245l-20.18-17.1a4.78,4.78,0,0,1,0-7.56L242.54,120.1a7.14,7.14,0,0,1,8.93,0l20.19,17.09a4.79,4.79,0,0,1,0,7.56L153.28,245A7.17,7.17,0,0,1,144.35,245Z"/><path class="cls-1" d="M257.69,235.44a5,5,0,0,1-3.94,3.94A5.1,5.1,0,0,0,257.69,235.44Z"/><path class="cls-1" d="M300,234.64v59.13a6.48,6.48,0,0,1-.14,1.26,6.9,6.9,0,0,1-5.66,4.85,10.17,10.17,0,0,1-1.47.12H7.34c-4,0-7.34-2.81-7.34-6.27v-59c0-3.47,3.29-6.27,7.34-6.27H33.9c4.05,0,7.34,2.8,7.34,6.27v30H258.76V234.64c0-3.44,3.26-6.22,7.29-6.22h26.68C296.74,228.42,300,231.2,300,234.64Z"/></svg>