<svg id="Layer_1" data-name="Layer 1" xmlns="http://www.w3.org/2000/svg" viewBox="0 0 300 300.15"><defs><style>.cls-1{fill:#fff;}</style></defs><title>icons</title><path d="M90.21,53.21l30.53,25.32v42.84l-86.48,2.24V53.21h56m3.55-20H24a9.52,9.52,0,0,0-9.76,9.26v92.16A9.52,9.52,0,0,0,24,143.88h.27l107-2.78a9.5,9.5,0,0,0,9.49-9.25V73.33a9.07,9.07,0,0,0-3.34-7L100.18,35.5a10.1,10.1,0,0,0-6.42-2.29Z"/><rect class="cls-1" x="10" y="78.6" width="280" height="177.29" rx="45.7"/><path d="M244.3,88.6A35.74,35.74,0,0,1,280,124.3v85.89a35.73,35.73,0,0,1-35.7,35.7H55.7A35.73,35.73,0,0,1,20,210.19V124.3A35.74,35.74,0,0,1,55.7,88.6H244.3m0-20H55.7A55.7,55.7,0,0,0,0,124.3v85.89a55.7,55.7,0,0,0,55.7,55.7H244.3a55.7,55.7,0,0,0,55.7-55.7V124.3a55.7,55.7,0,0,0-55.7-55.7Z"/><rect x="136.38" y="119.76" width="27.23" height="97.08" rx="5.08"/><rect x="136.38" y="119.76" width="27.23" height="97.08" rx="4.99" transform="translate(-18.3 318.3) rotate(-90)"/></svg>