<svg id="Layer_1" data-name="Layer 1" xmlns="http://www.w3.org/2000/svg" viewBox="0 0 297.85 297.85"><defs><style>.cls-1{fill:#2e7ec2;}</style></defs><title>icons</title><path class="cls-1" d="M148.92.67A148.25,148.25,0,1,0,297.17,148.92,148.26,148.26,0,0,0,148.92.67Zm97.63,151.81v0h0l-13.71,16.19h0l-66.71,78.77a3.81,3.81,0,0,1-6,0l-13.74-16.23a5.69,5.69,0,0,1,0-7.12L194,167.79H55.15A5.11,5.11,0,0,1,50,162.68V135.15a5.1,5.1,0,0,1,5.11-5.1H194L146.37,73.74a5.72,5.72,0,0,1,0-7.16l13.71-16.19a3.83,3.83,0,0,1,6.06,0l66.67,78.74h0l5,5.9,8.73,10.31h0v0A5.69,5.69,0,0,1,246.55,152.48Z"/></svg>