<svg id="Layer_1" data-name="Layer 1" xmlns="http://www.w3.org/2000/svg" viewBox="0 0 300 300"><defs><style>.cls-1{fill:#fff;}</style></defs><title>icons</title><path class="cls-1" d="M105.92,290.7a60.51,60.51,0,0,1-60.44-60.45V71.15A60.51,60.51,0,0,1,105.92,10.7h75.91V56.53A26.9,26.9,0,0,0,208.7,83.4h45.83V230.25a60.52,60.52,0,0,1-60.45,60.45Z"/><path d="M171.83,20.7V56.53A36.91,36.91,0,0,0,208.69,93.4h35.83V230.25a50.5,50.5,0,0,1-50.44,50.45H105.92a50.5,50.5,0,0,1-50.44-50.45V71.15A50.5,50.5,0,0,1,105.92,20.7h65.91m20-20H105.92A70.45,70.45,0,0,0,35.48,71.15v159.1a70.45,70.45,0,0,0,70.44,70.45h88.16a70.45,70.45,0,0,0,70.44-70.45V73.4H208.69a16.86,16.86,0,0,1-16.86-16.87V.7Z"/><rect x="136.38" y="102.16" width="27.23" height="97.08" rx="5.08"/><rect x="136.38" y="102.16" width="27.23" height="97.08" rx="4.99" transform="translate(-0.7 300.7) rotate(-90)"/><polygon points="191.83 0.7 264.52 73.4 250.34 87.58 177.63 14.86 191.83 0.7"/></svg>