<svg id="Layer_1" data-name="Layer 1" xmlns="http://www.w3.org/2000/svg" viewBox="0 0 300 300.15"><defs><style>.cls-1{fill:#000000;}.cls-2{fill:#fff;}</style></defs><title>icons</title><path class="cls-1" d="M90.21,53.21l30.53,25.32v42.84l-86.48,2.24V53.21h56m3.55-20H24a9.52,9.52,0,0,0-9.76,9.26v92.16A9.52,9.52,0,0,0,24,143.88h.27l107-2.78a9.5,9.5,0,0,0,9.49-9.25V73.33a9.07,9.07,0,0,0-3.34-7L100.18,35.5a10.1,10.1,0,0,0-6.42-2.29Z"/><rect class="cls-2" x="10" y="79.65" width="280" height="177.29" rx="2.08"/><path class="cls-1" d="M280,89.65V246.94H20V89.65H280m7.92-20H12.08A12.08,12.08,0,0,0,0,81.73V254.86a12.08,12.08,0,0,0,12.08,12.08H287.92A12.08,12.08,0,0,0,300,254.86V81.73a12.08,12.08,0,0,0-12.08-12.08Z"/><rect class="cls-1" x="136.38" y="119.76" width="27.23" height="97.08" rx="5.08"/><rect class="cls-1" x="136.38" y="119.76" width="27.23" height="97.08" rx="4.99" transform="translate(-18.3 318.3) rotate(-90)"/></svg>