<svg id="Layer_1" data-name="Layer 1" xmlns="http://www.w3.org/2000/svg" viewBox="0 0 300 300"><defs><style>.cls-1{fill:#000000;}.cls-2{fill:#fff;}</style></defs><title>icons</title><path class="cls-1" d="M90.21,52.16l30.53,25.32v42.84l-86.48,2.25V52.16h56m3.55-20H24a9.52,9.52,0,0,0-9.76,9.26v92.16A9.52,9.52,0,0,0,24,142.84h.27l107-2.78a9.5,9.5,0,0,0,9.49-9.25V72.28a9,9,0,0,0-3.34-7L100.18,34.45a10.1,10.1,0,0,0-6.42-2.29Z"/><rect class="cls-2" x="10" y="78.6" width="280" height="177.29" rx="2.08"/><path class="cls-1" d="M280,88.6V245.89H20V88.6H280m7.92-20H12.08A12.08,12.08,0,0,0,0,80.69V253.81a12.08,12.08,0,0,0,12.08,12.08H287.92A12.08,12.08,0,0,0,300,253.81V80.69A12.08,12.08,0,0,0,287.92,68.6Z"/></svg>